<?xml version="1.0" standalone="no"?>
<!DOCTYPE svg PUBLIC "-//W3C//DTD SVG 20010904//EN"
 "http://www.w3.org/TR/2001/REC-SVG-20010904/DTD/svg10.dtd">
<svg version="1.0" xmlns="http://www.w3.org/2000/svg"
 width="1000.000000pt" height="1000.000000pt" viewBox="0 0 1000.000000 1000.000000"
 preserveAspectRatio="xMidYMid meet">
<metadata>
Created by potrace 1.11, written by Peter Selinger 2001-2013
</metadata>
<g transform="translate(0.000000,1000.000000) scale(0.100000,-0.100000)"
fill="#000000" stroke="none">
<path d="M0 9240 l0 -760 663 0 c365 0 867 3 1115 7 l452 6 2 506 3 506 2255
7 c1240 3 2540 9 2888 13 l632 7 0 234 0 234 -4005 0 -4005 0 0 -760z"/>
<path d="M8963 9503 l-323 -3 0 -509 0 -508 -2057 -6 c-1132 -4 -2280 -10
-2550 -14 l-493 -6 0 -522 0 -522 -977 -6 c-537 -4 -1333 -7 -1770 -7 l-793 0
0 -1590 0 -1590 788 0 c433 0 1229 3 1769 7 l983 6 0 522 0 523 613 6 c336 3
1773 8 3192 11 1419 3 2597 8 2618 11 l37 6 0 2099 0 2099 -357 -2 c-197 -2
-503 -4 -680 -5z"/>
<path d="M8120 3179 c-998 -3 -1861 -7 -1917 -8 l-103 -1 0 -523 0 -524 -1462
-6 c-805 -4 -2177 -7 -3050 -7 l-1588 0 0 -534 0 -535 517 -3 c285 -2 2535 -2
5001 0 l4482 3 0 1075 0 1074 -32 -2 c-18 -1 -850 -5 -1848 -9z"/>
</g>
</svg>
